<svg data-v-fde0c5aa="" xmlns="http://www.w3.org/2000/svg" viewBox="0 0 300 300" class="font"><!----><defs data-v-fde0c5aa=""><linearGradient data-v-fde0c5aa="" gradientTransform="rotate(25)" id="a0399366-e1bb-4c80-93bf-491dcb17ac16" x1="0%" y1="0%" x2="100%" y2="0%"><stop data-v-fde0c5aa="" offset="0%" stop-color="#EB4C00" stop-opacity="1"></stop><stop data-v-fde0c5aa="" offset="100%" stop-color="#F2A900" stop-opacity="1"></stop></linearGradient></defs><rect data-v-fde0c5aa="" fill="url(#a0399366-e1bb-4c80-93bf-491dcb17ac16)" x="0" y="0" width="300px" height="300px" class="logo-background-square"></rect><defs data-v-fde0c5aa=""><!----></defs><g data-v-fde0c5aa="" id="70588ec9-cbff-4e14-a7a7-4f5c02fc4481" fill="#ffffff" transform="matrix(3.099028125373127,0,0,3.099028125373127,36.808001119529585,124.03014469358347)"><path d="M1.03 13.78L1.03 2.80L6.82 2.80L6.82 4.84L3.44 4.84L3.44 7.26L6.28 7.26L6.28 9.30L3.44 9.30L3.44 13.78L1.03 13.78ZM7.93 13.78L7.93 5.63L9.89 5.63L10.02 6.90L10.10 6.90L10.10 6.90Q10.24 6.47 10.49 6.16L10.49 6.16L10.49 6.16Q10.75 5.84 11.05 5.68L11.05 5.68L11.05 5.68Q11.35 5.51 11.63 5.51L11.63 5.51L11.63 5.51Q12.09 5.51 12.30 5.64L12.30 5.64L12.30 7.81L12.30 7.81Q11.96 7.72 11.69 7.72L11.69 7.72L11.69 7.72Q11.02 7.72 10.64 8.23L10.64 8.23L10.64 8.23Q10.26 8.74 10.26 9.84L10.26 9.84L10.26 13.78L7.93 13.78ZM13.21 4.60L13.21 2.80L15.52 2.80L15.52 4.60L13.21 4.60ZM13.19 13.78L13.19 5.63L15.52 5.63L15.52 13.78L13.19 13.78ZM20.32 12.13L20.32 12.13Q20.73 12.13 21.01 11.93L21.01 11.93L21.01 11.93Q21.30 11.74 21.49 11.33L21.49 11.33L23.14 11.83L23.14 11.83Q22.76 12.99 22.01 13.47L22.01 13.47L22.01 13.47Q21.27 13.95 20.21 13.95L20.21 13.95L20.21 13.95Q19.17 13.95 18.38 13.47L18.38 13.47L18.38 13.47Q17.58 12.98 17.12 12.03L17.12 12.03L17.12 12.03Q16.67 11.09 16.67 9.75L16.67 9.75L16.67 9.75Q16.67 7.75 17.50 6.61L17.50 6.61L17.50 6.61Q18.33 5.48 20.00 5.48L20.00 5.48L20.00 5.48Q21.62 5.48 22.40 6.48L22.40 6.48L22.40 6.48Q23.19 7.49 23.19 9.25L23.19 9.25L23.19 9.25Q23.19 9.88 23.12 10.26L23.12 10.26L18.92 10.26L18.92 10.26Q18.91 10.82 19.08 11.25L19.08 11.25L19.08 11.25Q19.26 11.67 19.58 11.90L19.58 11.90L19.58 11.90Q19.91 12.13 20.32 12.13L20.32 12.13ZM20.10 7.21L20.10 7.21Q19.00 7.21 18.96 8.82L18.96 8.82L21.25 8.82L21.25 8.82Q21.22 8.05 20.97 7.63L20.97 7.63L20.97 7.63Q20.73 7.21 20.10 7.21L20.10 7.21ZM24.38 13.78L24.38 5.63L26.54 5.63L26.65 6.87L26.75 6.87L26.75 6.87Q27.04 6.21 27.56 5.84L27.56 5.84L27.56 5.84Q28.08 5.48 28.80 5.48L28.80 5.48L28.80 5.48Q29.47 5.48 29.99 5.82L29.99 5.82L29.99 5.82Q30.51 6.17 30.80 6.81L30.80 6.81L30.80 6.81Q31.08 7.44 31.08 8.29L31.08 8.29L31.08 13.78L28.77 13.78L28.77 8.53L28.77 8.53Q28.77 7.87 28.53 7.57L28.53 7.57L28.53 7.57Q28.30 7.27 27.83 7.27L27.83 7.27L27.83 7.27Q27.31 7.27 27.01 7.67L27.01 7.67L27.01 7.67Q26.71 8.07 26.71 8.79L26.71 8.79L26.71 13.78L24.38 13.78ZM36.85 2.80L39.19 2.80L39.19 13.78L37.06 13.78L36.98 12.56L36.90 12.56L36.90 12.56Q36.71 13.19 36.18 13.58L36.18 13.58L36.18 13.58Q35.64 13.96 34.97 13.96L34.97 13.96L34.97 13.96Q34.13 13.96 33.49 13.49L33.49 13.49L33.49 13.49Q32.85 13.02 32.50 12.07L32.50 12.07L32.50 12.07Q32.14 11.12 32.14 9.71L32.14 9.71L32.14 9.71Q32.14 8.28 32.49 7.33L32.49 7.33L32.49 7.33Q32.85 6.38 33.47 5.93L33.47 5.93L33.47 5.93Q34.09 5.48 34.91 5.48L34.91 5.48L34.91 5.48Q35.58 5.48 36.07 5.85L36.07 5.85L36.07 5.85Q36.57 6.23 36.78 6.89L36.78 6.89L36.85 6.89L36.85 2.80ZM35.71 12.01L35.71 12.01Q36.28 12.01 36.59 11.41L36.59 11.41L36.59 11.41Q36.89 10.81 36.89 9.69L36.89 9.69L36.89 9.69Q36.89 8.61 36.59 8.02L36.59 8.02L36.59 8.02Q36.28 7.43 35.71 7.43L35.71 7.43L35.71 7.43Q35.15 7.43 34.82 8.00L34.82 8.00L34.82 8.00Q34.49 8.57 34.49 9.69L34.49 9.69L34.49 9.69Q34.49 10.85 34.82 11.43L34.82 11.43L34.82 11.43Q35.15 12.01 35.71 12.01L35.71 12.01ZM41.04 13.78L41.04 2.80L44.88 2.80L44.88 2.80Q45.94 2.80 46.66 3.19L46.66 3.19L46.66 3.19Q47.38 3.57 47.74 4.24L47.74 4.24L47.74 4.24Q48.09 4.92 48.09 5.79L48.09 5.79L48.09 5.79Q48.09 6.69 47.71 7.24L47.71 7.24L47.71 7.24Q47.33 7.79 46.55 7.99L46.55 7.99L46.55 8.09L46.55 8.09Q47.52 8.23 48.02 8.91L48.02 8.91L48.02 8.91Q48.52 9.59 48.52 10.72L48.52 10.72L48.52 10.72Q48.52 12.17 47.67 12.97L47.67 12.97L47.67 12.97Q46.83 13.78 45.17 13.78L45.17 13.78L41.04 13.78ZM43.35 7.33L44.70 7.33L44.70 7.33Q45.05 7.33 45.33 7.17L45.33 7.17L45.33 7.17Q45.62 7.01 45.78 6.71L45.78 6.71L45.78 6.71Q45.94 6.41 45.94 5.99L45.94 5.99L45.94 5.99Q45.94 5.36 45.61 5.03L45.61 5.03L45.61 5.03Q45.29 4.71 44.71 4.71L44.71 4.71L43.35 4.71L43.35 7.33ZM43.35 11.92L44.84 11.92L44.84 11.92Q45.49 11.92 45.84 11.53L45.84 11.53L45.84 11.53Q46.19 11.14 46.19 10.43L46.19 10.43L46.19 10.43Q46.19 9.73 45.82 9.35L45.82 9.35L45.82 9.35Q45.45 8.98 44.84 8.98L44.84 8.98L43.35 8.98L43.35 11.92ZM49.79 4.60L49.79 2.80L52.11 2.80L52.11 4.60L49.79 4.60ZM49.77 13.78L49.77 5.63L52.11 5.63L52.11 13.78L49.77 13.78ZM58.03 5.48L58.03 5.48Q58.85 5.48 59.47 5.93L59.47 5.93L59.47 5.93Q60.09 6.38 60.45 7.33L60.45 7.33L60.45 7.33Q60.81 8.28 60.81 9.71L60.81 9.71L60.81 9.71Q60.81 11.12 60.45 12.07L60.45 12.07L60.45 12.07Q60.09 13.02 59.46 13.49L59.46 13.49L59.46 13.49Q58.82 13.96 57.98 13.96L57.98 13.96L57.98 13.96Q57.31 13.96 56.77 13.58L56.77 13.58L56.77 13.58Q56.24 13.19 56.04 12.56L56.04 12.56L55.97 12.56L55.88 13.78L53.76 13.78L53.76 2.80L56.09 2.80L56.09 6.89L56.16 6.89L56.16 6.89Q56.38 6.23 56.87 5.85L56.87 5.85L56.87 5.85Q57.36 5.48 58.03 5.48L58.03 5.48ZM57.24 12.01L57.24 12.01Q57.80 12.01 58.13 11.43L58.13 11.43L58.13 11.43Q58.45 10.85 58.45 9.69L58.45 9.69L58.45 9.69Q58.45 8.57 58.12 8.00L58.12 8.00L58.12 8.00Q57.79 7.43 57.24 7.43L57.24 7.43L57.24 7.43Q56.66 7.43 56.36 8.02L56.36 8.02L56.36 8.02Q56.05 8.60 56.05 9.69L56.05 9.69L56.05 9.69Q56.05 10.81 56.36 11.41L56.36 11.41L56.36 11.41Q56.66 12.01 57.24 12.01L57.24 12.01ZM62.01 13.78L62.01 2.80L64.35 2.80L64.35 13.78L62.01 13.78ZM69.15 12.13L69.15 12.13Q69.56 12.13 69.84 11.93L69.84 11.93L69.84 11.93Q70.13 11.74 70.31 11.33L70.31 11.33L71.97 11.83L71.97 11.83Q71.59 12.99 70.84 13.47L70.84 13.47L70.84 13.47Q70.10 13.95 69.04 13.95L69.04 13.95L69.04 13.95Q68.00 13.95 67.20 13.47L67.20 13.47L67.20 13.47Q66.40 12.98 65.95 12.03L65.95 12.03L65.95 12.03Q65.50 11.09 65.50 9.75L65.50 9.75L65.50 9.75Q65.50 7.75 66.33 6.61L66.33 6.61L66.33 6.61Q67.16 5.48 68.83 5.48L68.83 5.48L68.83 5.48Q70.44 5.48 71.23 6.48L71.23 6.48L71.23 6.48Q72.02 7.49 72.02 9.25L72.02 9.25L72.02 9.25Q72.02 9.88 71.95 10.26L71.95 10.26L67.74 10.26L67.74 10.26Q67.74 10.82 67.91 11.25L67.91 11.25L67.91 11.25Q68.09 11.67 68.41 11.90L68.41 11.90L68.41 11.90Q68.74 12.13 69.15 12.13L69.15 12.13ZM68.93 7.21L68.93 7.21Q67.83 7.21 67.79 8.82L67.79 8.82L70.08 8.82L70.08 8.82Q70.05 8.05 69.80 7.63L69.80 7.63L69.80 7.63Q69.56 7.21 68.93 7.21L68.93 7.21Z"></path></g><!----><!----></svg>